<svg version="1.2" baseProfile="tiny-ps" xmlns="http://www.w3.org/2000/svg" viewBox="0 0 196 276" width="196" height="276">
	<title>g8728</title>
	<style>
		tspan { white-space:pre }
		.s0 { fill: #ffffff;stroke: #000000 } 
		.s1 { opacity: .6;fill: none;stroke: #000000;stroke-width: .5 } 
		.t2 { font-size: 24px;fill: #ff0000;font-family: "Arial" } 
		.s3 { fill: #ff0000 } 
	</style>
	<g id="g8728">
		<g id="g8730">
			<path id="rect8732" class="s0" d="m0.87 9.1c0-4.47 3.62-8.09 8.09-8.09h178.12c4.47 0 8.09 3.62 8.09 8.09v258.14c0 4.47-3.62 8.09-8.09 8.09h-178.12c-4.47 0-8.09-3.62-8.09-8.09v-258.14z" />
			<path id="rect8734" class="s1" d="m28.81 26.91h138.42v222.51h-138.42v-222.51z" />
		</g>
		<text id="tspan8738" style="transform: matrix(1,0,0,1,8.815,25.513)" >
			<tspan x="0" y="0" class="t2">2
</tspan>
		</text>
		<text id="tspan8742" style="transform: matrix(1,0,0,1,173.268,267.584)" >
			<tspan x="0" y="0" class="t2">2
</tspan>
		</text>
		<path id="path8752" class="s3" d="m15.2 35.11l5.77 8.69l-5.77 8.69l-5.76-8.69l5.76-8.69z" />
		<path id="path8754" class="s3" d="m179.66 223.65l5.76 8.69l-5.76 8.69l-5.77-8.69l5.77-8.69z" />
		<path id="path8756" class="s3" d="m98.02 210.43l10.16 15.32l-10.16 15.32l-10.16-15.32l10.16-15.32v0z" />
		<path id="path3298" class="s3" d="m98.02 35.07l10.16 15.33l-10.16 15.32l-10.16-15.32l10.16-15.33z" />
	</g>
</svg>