<svg version="1.2" baseProfile="tiny-ps" xmlns="http://www.w3.org/2000/svg" viewBox="0 0 197 276" width="197" height="276">
	<title>g9221</title>
	<style>
		tspan { white-space:pre }
		.s0 { fill: #ffffff;stroke: #000000 } 
		.s1 { opacity: .6;fill: none;stroke: #000000;stroke-width: .5 } 
		.t2 { font-size: 24px;fill: #ff0000;font-family: "Arial" } 
		.s3 { fill: #ff0000 } 
	</style>
	<g id="g9221">
		<g id="g9223">
			<path id="rect9225" class="s0" d="m1.27 9.1c0-4.47 3.62-8.09 8.09-8.09h178.12c4.47 0 8.09 3.62 8.09 8.09v258.14c0 4.47-3.62 8.09-8.09 8.09h-178.12c-4.47 0-8.09-3.62-8.09-8.09v-258.14z" />
			<path id="rect9227" class="s1" d="m29.21 26.91h138.42v222.51h-138.42v-222.51z" />
		</g>
		<text id="tspan9231" style="transform: matrix(1,0,0,1,8.98,25.513)" >
			<tspan x="0" y="0" class="t2">3
</tspan>
		</text>
		<text id="tspan9235" style="transform: matrix(1,0,0,1,173.434,267.584)" >
			<tspan x="0" y="0" class="t2">3
</tspan>
		</text>
		<path id="path9245" class="s3" d="m15.61 35.11l5.77 8.69l-5.77 8.69l-5.76-8.69l5.76-8.69z" />
		<path id="path9247" class="s3" d="m180.07 223.65l5.76 8.69l-5.76 8.69l-5.77-8.69l5.77-8.69z" />
		<path id="path9249" class="s3" d="m98.43 210.43l10.16 15.32l-10.16 15.32l-10.16-15.32l10.16-15.32v0z" />
		<path id="path9251" class="s3" d="m98.43 35.07l10.16 15.33l-10.16 15.32l-10.16-15.32l10.16-15.33z" />
		<path id="path3300" class="s3" d="m98.87 122.75l10.16 15.32l-10.16 15.32l-10.16-15.32l10.16-15.32z" />
	</g>
</svg>