<svg version="1.2" baseProfile="tiny-ps" xmlns="http://www.w3.org/2000/svg" viewBox="0 0 197 276" width="197" height="276">
	<title>g13759</title>
	<style>
		tspan { white-space:pre }
		.s0 { fill: #ffffff;stroke: #000000 } 
		.s1 { opacity: .6;fill: none;stroke: #000000;stroke-width: .5 } 
		.t2 { font-size: 24px;fill: #000000;font-family: "Arial" } 
		.s3 { fill: #000000 } 
	</style>
	<g id="g13759">
		<g id="g13761">
			<path id="rect13763" class="s0" d="m1.27 8.98c0-4.47 3.62-8.09 8.09-8.09h178.12c4.47 0 8.09 3.62 8.09 8.09v258.14c0 4.47-3.62 8.09-8.09 8.09h-178.12c-4.47 0-8.09-3.62-8.09-8.09v-258.14z" />
			<path id="rect13765" class="s1" d="m29.21 26.79h138.42v222.51h-138.42v-222.51z" />
		</g>
		<text id="tspan13769" style="transform: matrix(1,0,0,1,8.98,25.392)" >
			<tspan x="0" y="0" class="t2">3
</tspan>
		</text>
		<text id="tspan13773" style="transform: matrix(1,0,0,1,173.434,267.463)" >
			<tspan x="0" y="0" class="t2">3
</tspan>
		</text>
		<path id="path13777" class="s3" d="m15.61 34.95c0 0 1.39 2.44 2.44 3.86c1.04 1.41 2.01 2 3.25 3.37c1.25 1.38 2.15 2.22 2.15 4.73c0 2.1-1.8 3.73-3.9 3.73c-1.34 0-2.52-0.68-3.23-1.71c0.16 0.48 0.35 0.94 0.58 1.33c0.96 1.66 2.55 2.14 2.55 2.14h-7.67c0 0 1.59-0.48 2.55-2.14c0.23-0.39 0.42-0.85 0.58-1.33c-0.72 1.03-1.9 1.71-3.24 1.71c-2.09 0-3.9-1.63-3.9-3.73c0-2.51 0.9-3.35 2.16-4.73c1.24-1.37 2.21-1.96 3.25-3.37c1.04-1.42 2.43-3.86 2.43-3.86h0z" />
		<path id="path13779" class="s3" d="m182.5 227.35c1.04 1.42 2.01 2.01 3.25 3.37c1.26 1.38 2.16 2.23 2.16 4.74c0 2.09-1.81 3.72-3.9 3.72c-1.34 0-2.52-0.67-3.24-1.7c0.16 0.47 0.35 0.93 0.58 1.33c0.96 1.66 2.55 2.14 2.55 2.14h-7.67c0 0 1.6-0.48 2.56-2.14c0.22-0.4 0.41-0.86 0.57-1.33c-0.71 1.03-1.89 1.7-3.23 1.7c-2.1 0-3.9-1.63-3.9-3.72c0-2.51 0.9-3.36 2.15-4.74c1.24-1.36 2.21-1.95 3.25-3.37c1.05-1.41 2.44-3.85 2.44-3.85c0 0 1.39 2.44 2.43 3.85z" />
		<path id="path2846" class="s3" d="m98.43 34.95c0 0 2.44 4.29 4.27 6.77c1.82 2.48 3.53 3.52 5.71 5.92c2.2 2.42 3.79 3.91 3.79 8.32c0 3.67-3.17 6.54-6.85 6.54c-2.36 0-4.43-1.19-5.68-2.99c0.28 0.83 0.61 1.63 1.01 2.32c1.68 2.92 4.48 3.77 4.48 3.77h-13.47c0 0 2.8-0.85 4.49-3.77c0.4-0.69 0.72-1.49 1-2.32c-1.25 1.8-3.32 2.99-5.67 2.99c-3.69 0-6.86-2.87-6.86-6.54c0-4.41 1.59-5.9 3.79-8.32c2.18-2.4 3.89-3.44 5.71-5.92c1.83-2.48 4.28-6.77 4.28-6.77v0z" />
		<path id="path2848" class="s3" d="m98.43 210.31c0 0 2.44 4.28 4.27 6.76c1.82 2.48 3.53 3.52 5.71 5.92c2.2 2.42 3.79 3.91 3.79 8.32c0 3.67-3.17 6.54-6.85 6.54c-2.36 0-4.43-1.19-5.68-2.99c0.28 0.83 0.61 1.63 1.01 2.33c1.68 2.91 4.48 3.76 4.48 3.76h-13.47c0 0 2.8-0.85 4.49-3.76c0.4-0.7 0.72-1.5 1-2.33c-1.25 1.8-3.32 2.99-5.67 2.99c-3.69 0-6.86-2.87-6.86-6.54c0-4.41 1.59-5.9 3.79-8.32c2.18-2.4 3.89-3.44 5.71-5.92c1.83-2.48 4.28-6.76 4.28-6.76v0z" />
		<path id="path4210" class="s3" d="m98.43 122.63c0 0 2.44 4.28 4.27 6.76c1.82 2.49 3.53 3.53 5.71 5.93c2.2 2.42 3.79 3.9 3.79 8.31c0 3.68-3.17 6.54-6.85 6.54c-2.36 0-4.43-1.18-5.68-2.99c0.28 0.83 0.61 1.64 1.01 2.33c1.68 2.92 4.48 3.76 4.48 3.76h-13.47c0 0 2.8-0.84 4.49-3.76c0.4-0.69 0.72-1.5 1-2.33c-1.25 1.81-3.32 2.99-5.67 2.99c-3.69 0-6.86-2.86-6.86-6.54c0-4.41 1.59-5.89 3.79-8.31c2.18-2.4 3.89-3.44 5.71-5.93c1.83-2.48 4.28-6.76 4.28-6.76v0z" />
	</g>
</svg>