<svg width="244" height="51" viewBox="0 0 244 51" fill="none" xmlns="http://www.w3.org/2000/svg">
<g style="mix-blend-mode:exclusion">
<path fill-rule="evenodd" clip-rule="evenodd" d="M10.2412 30.4235L7.8731 34.9099L7.91304 49.9598L0.213069 49.9805L0.0830291 0.980652L7.783 0.960008L7.83966 22.3099L17.863 0.932984L25.5629 0.91234L14.9109 22.781L25.693 49.9122L17.783 49.9334L10.2412 30.4235ZM36.533 38.6131C36.5377 40.3864 36.9027 41.6338 37.628 42.3551C38.3532 43.0765 39.3225 43.4356 40.5358 43.4324C41.7492 43.4291 42.7165 43.0648 43.4379 42.3396C44.1594 41.6143 44.5177 40.365 44.513 38.5917L44.4428 12.1318C44.4381 10.3584 44.0731 9.11108 43.3478 8.38969C42.6226 7.66829 41.6533 7.30923 40.44 7.31248C39.2266 7.31573 38.2593 7.67999 37.5379 8.40526C36.8164 9.13054 36.4581 10.3798 36.4628 12.1532L36.533 38.6131ZM28.7641 12.6638C28.7536 8.69713 29.7488 5.64948 31.7499 3.52076C33.7509 1.39205 36.6414 0.322638 40.4214 0.312504C44.2014 0.302369 47.0975 1.35626 49.1098 3.47422C51.1221 5.59218 52.1335 8.63445 52.144 12.6011L52.2117 38.081C52.2222 42.0477 51.227 45.0954 49.2259 47.2241C47.2249 49.3528 44.3344 50.4222 40.5544 50.4323C36.7744 50.4425 33.8783 49.3886 31.866 47.2706C29.8537 45.1527 28.8423 42.1104 28.8318 38.1437L28.7641 12.6638ZM64.7686 14.3173L64.8628 49.8072L57.9329 49.8257L57.8028 0.825906L67.4628 0.800007L75.4506 30.1087L75.3728 0.778801L82.2327 0.760409L82.3628 49.7602L74.4528 49.7814L64.7686 14.3173ZM87.6039 12.5061C87.5934 8.53938 88.5303 5.49189 90.4147 3.36348C92.299 1.23508 95.1312 0.165827 98.9112 0.155693C102.691 0.145559 105.529 1.19961 107.425 3.31788C109.32 5.43615 110.273 8.47857 110.284 12.4452L110.288 13.9852L103.008 14.0048L103.003 11.9748C102.998 10.2014 102.656 8.95402 101.978 8.2325C101.299 7.51098 100.353 7.15185 99.1398 7.15511C97.9264 7.15836 96.9824 7.52255 96.3077 8.2477C95.6329 8.97285 95.2979 10.2221 95.3026 11.9954C95.3071 13.6754 95.6843 15.1561 96.4344 16.4374C97.1845 17.7187 98.121 18.9295 99.244 20.0699C100.367 21.2102 101.572 22.3503 102.858 23.4902C104.144 24.6301 105.349 25.8752 106.473 27.2255C107.597 28.5758 108.534 30.1133 109.285 31.838C110.037 33.5627 110.415 35.5916 110.421 37.925C110.432 41.8916 109.472 44.9392 107.541 47.0677C105.61 49.1963 102.754 50.2656 98.9742 50.2757C95.1942 50.2858 92.3331 49.2319 90.3908 47.1137C88.4485 44.9956 87.4721 41.9532 87.4615 37.9865L87.4536 34.9765L94.7335 34.957L94.7428 38.457C94.7475 40.2303 95.1125 41.466 95.8377 42.1641C96.5629 42.8621 97.5321 43.2095 98.7454 43.2063C99.9588 43.203 100.926 42.8504 101.648 42.1485C102.369 41.4466 102.727 40.2089 102.723 38.4356C102.718 36.7556 102.341 35.275 101.591 33.9936C100.841 32.7123 99.9044 31.5015 98.7813 30.3611C97.6583 29.2208 96.4536 28.0807 95.1673 26.9408C93.8809 25.8009 92.6759 24.5558 91.5523 23.2055C90.4287 21.8552 89.4913 20.3177 88.7401 18.593C87.9888 16.8684 87.6101 14.8394 87.6039 12.5061ZM113.283 0.677165L137.083 0.613357L137.101 7.61333L129.051 7.63491L129.163 49.6348L121.463 49.6554L121.351 7.65556L113.301 7.67714L113.283 0.677165ZM157.462 49.5589C157.368 49.2325 157.274 48.9294 157.18 48.6496C157.086 48.3699 157.003 48.0201 156.932 47.6003C156.861 47.1805 156.813 46.6439 156.788 45.9907C156.763 45.3374 156.749 44.5208 156.746 43.5408L156.726 35.8408C156.72 33.5541 156.319 31.9452 155.523 31.014C154.727 30.0828 153.443 29.6196 151.669 29.6243L149.009 29.6315L149.062 49.5814L141.362 49.602L141.232 0.602207L152.852 0.571054C156.866 0.560294 159.773 1.48583 161.575 3.34768C163.376 5.20953 164.282 8.03042 164.292 11.8104L164.302 15.6604C164.316 20.7004 162.645 24.0182 159.289 25.6139C161.251 26.402 162.596 27.6934 163.324 29.4881C164.052 31.2828 164.42 33.4635 164.427 36.0302L164.447 43.5901C164.45 44.8035 164.499 45.865 164.595 46.7747C164.691 47.6845 164.927 48.6055 165.302 49.5379L157.462 49.5589ZM148.951 7.58156L148.991 22.6315L152.001 22.6234C153.448 22.6196 154.578 22.2432 155.393 21.4943C156.208 20.7455 156.612 19.3911 156.607 17.4311L156.594 12.6011C156.59 10.8278 156.271 9.54528 155.639 8.75364C155.007 7.96199 154.014 7.56799 152.661 7.57162L148.951 7.58156ZM177.512 0.504965L177.613 38.3048C177.617 40.0782 177.982 41.3138 178.708 42.0119C179.433 42.71 180.402 43.0574 181.615 43.0541C182.829 43.0509 183.796 42.6983 184.518 41.9963C185.239 41.2944 185.597 40.0568 185.593 38.2834L185.492 0.483571L192.772 0.464054L192.871 37.7739C192.882 41.7406 191.922 44.7882 189.991 46.9167C188.06 49.0452 185.204 50.1145 181.424 50.1247C177.644 50.1348 174.783 49.0808 172.841 46.9627C170.898 44.8445 169.922 41.8022 169.911 37.8355L169.812 0.525609L177.512 0.504965ZM219.852 0.391453L243.652 0.327645L243.671 7.32762L235.621 7.3492L235.732 49.3491L228.032 49.3697L227.921 7.36985L219.871 7.39143L219.852 0.391453Z" fill="#1A1A1A"/>
</g>
</svg>
