<svg version="1.2" xmlns="http://www.w3.org/2000/svg" viewBox="0 0 20 20" width="20" height="20"><style>.s0{opacity: .7;fill:#b7b9cd}</style><path class="s0" d="m19.9 7.8h0.1l-2.5 11.2h-0.1c-0.1 0.6-0.6 1-1.2 1h-12.5c-0.5 0-1-0.4-1.1-1h-0.1l-2.5-11.2h0.1q-0.1-0.2-0.1-0.3c0-0.7 0.6-1.3 1.2-1.3h2.5c0-3.4 2.8-6.2 6.3-6.2c3.5 0 6.2 2.8 6.2 6.2h2.5c0.7 0 1.3 0.6 1.3 1.3q0 0.1-0.1 0.3zm-9.9-5.3c-2.1 0-3.8 1.7-3.8 3.7h7.5c0-2-1.6-3.7-3.7-3.7zm5 8.7c-0.7 0-1.3-0.5-1.3-1.2v-1.3h-7.5v1.3c0 0.7-0.5 1.2-1.2 1.2c-0.7 0-1.3-0.5-1.3-1.2v-1.3h-0.9l2 8.8h10.4l2-8.8h-1v1.3c0 0.7-0.5 1.2-1.2 1.2z" /></svg>