<svg version="1.2" xmlns="http://www.w3.org/2000/svg" viewBox="0 0 19 21" width="19" height="21"><style>.s0{opacity: .7;fill:#b7b9cd}</style><path class="s0" d="m19 11.3c0 2.7-2.1 4.9-4.8 4.9c-1.5 0-2.9-0.8-3.7-2h-0.1l-0.9-1.3l-0.9 1.3h-0.1c-0.8 1.2-2.2 2-3.7 2c-2.7 0-4.8-2.2-4.8-4.9c0-1.1 0.4-2.1 1-2.9c0 0 6.9-8.4 8.5-8.4c1.6 0 8.5 8.4 8.5 8.4c0.6 0.8 1 1.8 1 2.9zm-11.1 6.5v-1.6c0-0.9 0.7-1.7 1.6-1.7c0.9 0 1.6 0.8 1.6 1.7v1.6c0.9 0 1.6 0.7 1.6 1.6c0 0.9-0.7 1.6-1.6 1.6h-3.2c-0.9 0-1.6-0.7-1.6-1.6c0-0.9 0.7-1.6 1.6-1.6z" /></svg>