<svg version="1.2" xmlns="http://www.w3.org/2000/svg" viewBox="0 0 24 24" width="24" height="24"><style>.s0{fill:#ffffff}</style><path class="s0" d="m20.4 19h-3.6l-3.8 3.8c-0.3 0.2-0.6 0.4-1 0.4c-0.4 0-0.7-0.2-1-0.4l-3.8-3.8h-3.6c-1.5 0-2.8-1.3-2.8-2.8v-12.6c0-1.5 1.3-2.8 2.8-2.8h16.8c1.5 0 2.8 1.3 2.8 2.8v12.6c0 1.5-1.3 2.8-2.8 2.8zm0-14c0-0.8-0.6-1.4-1.4-1.4h-14c-0.8 0-1.4 0.6-1.4 1.4v9.8c0 0.8 0.6 1.4 1.4 1.4h1.4h1.4c0.4 0 0.7 0.2 1 0.4l3.2 3.2l3.2-3.2c0.3-0.2 0.6-0.4 1-0.4h1.4h1.4c0.8 0 1.4-0.6 1.4-1.4zm-4.2 8.4h-8.4c-0.8 0-1.4-0.6-1.4-1.4c0-0.8 0.6-1.4 1.4-1.4h8.4c0.8 0 1.4 0.6 1.4 1.4c0 0.8-0.6 1.4-1.4 1.4zm0-4.2h-8.4c-0.8 0-1.4-0.6-1.4-1.4c0-0.8 0.6-1.4 1.4-1.4h8.4c0.8 0 1.4 0.6 1.4 1.4c0 0.8-0.6 1.4-1.4 1.4z" /></svg>