<svg version="1.2" baseProfile="tiny-ps" xmlns="http://www.w3.org/2000/svg" viewBox="0 0 196 276" width="196" height="276">
	<title>g3122</title>
	<style>
		tspan { white-space:pre }
		.s0 { fill: #fffefe;stroke: #000000 } 
		.s1 { opacity: .6;fill: none;stroke: #000000;stroke-width: .5 } 
		.t2 { font-size: 24px;fill: #000000;font-family: "Arial" } 
		.s3 { fill: #000000 } 
	</style>
	<g id="g3122">
		<g id="g3124">
			<path id="rect3126" class="s0" d="m0.87 9.23c0-4.47 3.62-8.09 8.09-8.09h178.12c4.47 0 8.09 3.62 8.09 8.09v258.14c0 4.47-3.62 8.09-8.09 8.09h-178.12c-4.47 0-8.09-3.62-8.09-8.09v-258.14z" />
			<path id="rect3128" class="s1" d="m28.81 27.04h138.42v222.51h-138.42v-222.51z" />
		</g>
		<text id="tspan3132" style="transform: matrix(1,0,0,1,8.815,25.642)" >
			<tspan x="0" y="0" class="t2">2
</tspan>
		</text>
		<text id="tspan3136" style="transform: matrix(1,0,0,1,173.268,267.713)" >
			<tspan x="0" y="0" class="t2">2
</tspan>
		</text>
		<path id="path3146" class="s3" d="m15.2 35.24c2.27 0 4.12 1.88 4.12 4.2c0 1.23-0.52 2.34-1.35 3.11c0.41-0.13 0.84-0.2 1.3-0.2c2.32 0 4.2 1.84 4.2 4.11c0 2.27-1.88 4.11-4.2 4.11c-1.87 0-3.3-1.13-3.85-2.78c0.02 1.42 0.67 4.19 1.26 4.83h-2.92c0.55-0.53 1.09-3.03 1.18-4.83c-0.5 1.7-1.94 2.78-3.8 2.78c-2.32 0-4.2-1.84-4.2-4.11c0-2.27 1.88-4.11 4.2-4.11c0.45 0 0.89 0.07 1.3 0.2c-0.83-0.77-1.35-1.88-1.35-3.11c0-2.32 1.84-4.2 4.11-4.2h0z" />
		<path id="path3148" class="s3" d="m179.66 223.78c2.27 0 4.11 1.89 4.11 4.21c0 1.23-0.52 2.33-1.35 3.1c0.41-0.13 0.85-0.2 1.3-0.2c2.32 0 4.2 1.84 4.2 4.12c0 2.27-1.88 4.11-4.2 4.11c-1.87 0-3.3-1.13-3.85-2.78c0.02 1.42 0.68 4.19 1.27 4.82h-2.93c0.55-0.52 1.09-3.03 1.19-4.82c-0.51 1.7-1.95 2.78-3.81 2.78c-2.32 0-4.2-1.84-4.2-4.11c0-2.28 1.88-4.12 4.2-4.12c0.46 0 0.89 0.07 1.3 0.2c-0.83-0.77-1.35-1.87-1.35-3.1c0-2.32 1.85-4.21 4.12-4.21h0z" />
		<path id="path2620" class="s3" d="m105.27 217.96c0 2.17-0.92 4.13-2.37 5.48c0.72-0.23 1.48-0.35 2.28-0.35c4.09 0 7.41 3.25 7.41 7.25c0 4-3.32 7.26-7.41 7.26c-3.29 0-5.81-2.01-6.78-4.91c0.03 2.5 1.18 7.39 2.23 8.51h-5.16c0.97-0.93 1.91-5.35 2.09-8.51c-0.89 3-3.44 4.91-6.71 4.91c-4.09 0-7.4-3.26-7.4-7.26c0-4 3.31-7.25 7.4-7.25c0.8 0 1.57 0.12 2.29 0.35c-1.46-1.35-2.38-3.31-2.38-5.48c0-4.09 3.25-7.4 7.26-7.4c4 0 7.25 3.31 7.25 7.4z" />
		<path id="path3686" class="s3" d="m105.27 42.61c0 2.17-0.92 4.12-2.37 5.48c0.72-0.23 1.48-0.35 2.28-0.35c4.09 0 7.41 3.24 7.41 7.25c0 4-3.32 7.25-7.41 7.25c-3.29 0-5.81-2-6.78-4.9c0.03 2.5 1.18 7.39 2.23 8.51h-5.16c0.97-0.93 1.91-5.35 2.09-8.51c-0.89 2.99-3.44 4.9-6.71 4.9c-4.09 0-7.4-3.25-7.4-7.25c0-4.01 3.31-7.25 7.4-7.25c0.8 0 1.57 0.12 2.29 0.35c-1.46-1.36-2.38-3.31-2.38-5.48c0-4.09 3.25-7.41 7.26-7.41c4 0 7.25 3.32 7.25 7.41z" />
	</g>
</svg>