<svg version="1.2" baseProfile="tiny-ps" xmlns="http://www.w3.org/2000/svg" viewBox="0 0 18 14" width="18" height="14">
	<title>Path</title>
	<style>
		tspan { white-space:pre }
		.s0 { fill: #000000 } 
	</style>
	<path id="Path" class="s0" d="m16.15 3.48l0.01 0.46c0 4.67-3.71 10.06-10.51 10.06c-2.09 0-4.03-0.59-5.66-1.59c0.29 0.03 0.58 0.05 0.88 0.05c1.73 0 3.32-0.56 4.59-1.51c-1.62-0.03-2.98-1.05-3.45-2.45c0.23 0.04 0.46 0.07 0.7 0.07c0.34 0 0.66-0.04 0.97-0.12c-1.69-0.33-2.96-1.75-2.96-3.47v-0.04c0.5 0.26 1.07 0.42 1.67 0.44c-0.99-0.63-1.64-1.72-1.64-2.94c0-0.65 0.18-1.26 0.5-1.78c1.82 2.14 4.54 3.55 7.61 3.69c-0.06-0.26-0.1-0.53-0.1-0.81c0-1.95 1.65-3.53 3.69-3.53c1.06 0 2.02 0.43 2.69 1.12c0.84-0.16 1.63-0.45 2.35-0.86c-0.28 0.82-0.86 1.52-1.62 1.95c0.75-0.09 1.46-0.28 2.12-0.56c-0.49 0.71-1.12 1.33-1.85 1.83z" />
</svg>