<svg version="1.2" baseProfile="tiny-ps" xmlns="http://www.w3.org/2000/svg" viewBox="0 0 15 15" width="15" height="15">
	<title>Shape</title>
	<style>
		tspan { white-space:pre }
		.s0 { fill: #000000 } 
	</style>
	<path id="Shape" fill-rule="evenodd" class="s0" d="m15 4.69v5.63c0 2.59-2.1 4.69-4.69 4.69h-5.63c-2.59 0-4.69-2.1-4.69-4.69v-5.63c0-2.59 2.1-4.69 4.69-4.69h5.63c2.59 0 4.69 2.1 4.69 4.69zm-1.41 0c0-1.81-1.47-3.28-3.28-3.28h-5.63c-1.81 0-3.28 1.47-3.28 3.28v5.63c0 1.81 1.47 3.28 3.28 3.28h5.63c1.81 0 3.28-1.47 3.28-3.28v-5.63z" />
	<path id="Shape" fill-rule="evenodd" class="s0" d="m11.28 7.52c0 2.08-1.68 3.76-3.76 3.76c-2.08 0-3.76-1.68-3.76-3.76c0-2.08 1.68-3.76 3.76-3.76c2.08 0 3.76 1.68 3.76 3.76zm-1.41 0c0-1.3-1.05-2.35-2.35-2.35c-1.29 0-2.35 1.05-2.35 2.35c0 1.29 1.05 2.35 2.35 2.35c1.29 0 2.35-1.05 2.35-2.35z" />
	<path id="Oval" class="s0" d="m11.04 3.47c0-0.27 0.22-0.5 0.5-0.5c0.27 0 0.5 0.22 0.5 0.5c0 0.27-0.22 0.5-0.5 0.5c-0.27 0-0.5-0.22-0.5-0.5z" />
</svg>