<svg version="1.2" baseProfile="tiny-ps" xmlns="http://www.w3.org/2000/svg" viewBox="0 0 15 15" width="15" height="15">
	<title>Shape</title>
	<style>
		tspan { white-space:pre }
		.s0 { fill: #000000 } 
	</style>
	<path id="Shape" fill-rule="evenodd" class="s0" d="m14.98 7.49c0 1.36-0.33 2.61-1 3.76c-0.67 1.15-1.58 2.06-2.73 2.73c-1.15 0.67-2.4 1-3.76 1c-1.36 0-2.61-0.33-3.76-1c-1.15-0.67-2.06-1.58-2.73-2.73c-0.67-1.15-1-2.4-1-3.76c0-1.36 0.33-2.61 1-3.76c0.67-1.15 1.58-2.06 2.73-2.73c1.15-0.67 2.4-1 3.76-1c1.36 0 2.61 0.33 3.76 1c1.15 0.67 2.06 1.58 2.73 2.73c0.67 1.15 1 2.4 1 3.76zm-9-6.21c0.85 1.11 1.65 2.35 2.4 3.73c0.45-0.17 0.87-0.37 1.27-0.59c0.4-0.22 0.71-0.42 0.94-0.6c0.23-0.18 0.44-0.36 0.64-0.56c0.2-0.2 0.32-0.33 0.37-0.4l0.12-0.17c-1.2-1.07-2.61-1.6-4.22-1.6c-0.49 0-1 0.06-1.51 0.19zm-4.75 4.9c1.96 0 3.93-0.26 5.91-0.78c-0.78-1.39-1.57-2.61-2.38-3.69c-0.9 0.42-1.66 1.03-2.28 1.81c-0.62 0.79-1.04 1.67-1.25 2.65zm1.5 5.59c0.33-0.58 0.73-1.12 1.2-1.62c0.48-0.5 0.94-0.91 1.39-1.21c0.45-0.31 0.87-0.57 1.27-0.79c0.4-0.22 0.72-0.38 0.97-0.47l0.36-0.13c0.03-0.01 0.07-0.02 0.13-0.03c0.06-0.02 0.1-0.03 0.13-0.04c-0.14-0.32-0.31-0.68-0.52-1.08c-2.02 0.6-4.21 0.91-6.57 0.91c-0.01 0.05-0.01 0.11-0.01 0.2c0 0.81 0.14 1.58 0.43 2.31c0.29 0.73 0.69 1.39 1.21 1.97zm7.26 1.62c-0.27-1.57-0.73-3.19-1.37-4.86h-0.02l-0.02 0.01c-0.1 0.04-0.24 0.09-0.42 0.16c-0.18 0.07-0.5 0.23-0.99 0.48c-0.48 0.25-0.93 0.52-1.34 0.8c-0.41 0.28-0.84 0.66-1.28 1.12c-0.44 0.46-0.78 0.94-1 1.44l-0.15-0.11c1.2 0.98 2.56 1.46 4.08 1.46c0.86 0 1.69-0.17 2.5-0.51zm3.82-4.88c-1.37-0.39-2.7-0.48-3.99-0.28c0.57 1.55 0.98 3.08 1.25 4.58c0.72-0.49 1.32-1.1 1.8-1.85c0.48-0.74 0.79-1.56 0.94-2.44zm0.08-1.08c-0.02-1.51-0.5-2.84-1.45-4l-0.01 0.01c-0.06 0.08-0.12 0.16-0.19 0.24c-0.07 0.08-0.21 0.23-0.42 0.43c-0.22 0.21-0.45 0.4-0.69 0.59c-0.24 0.19-0.57 0.4-0.98 0.63c-0.41 0.24-0.83 0.45-1.28 0.63c0.16 0.34 0.31 0.65 0.43 0.93c0.01 0.04 0.03 0.1 0.06 0.17c0.03 0.07 0.05 0.13 0.07 0.16c0.23-0.03 0.48-0.06 0.73-0.07c0.25-0.01 0.49-0.02 0.72-0.02c0.23 0 0.45 0 0.67 0.01c0.22 0.01 0.43 0.02 0.62 0.04c0.2 0.02 0.38 0.03 0.55 0.05c0.17 0.02 0.33 0.04 0.47 0.06c0.14 0.02 0.26 0.04 0.36 0.06c0.1 0.02 0.18 0.03 0.24 0.04l0.1 0.02z" />
</svg>