<svg version="1.2" baseProfile="tiny-ps" xmlns="http://www.w3.org/2000/svg" viewBox="0 0 91 20" width="91" height="20">
	<title>Logo</title>
	<style>
		tspan { white-space:pre }
		.s0 { fill: #111111 } 
	</style>
	<path id="Logo" fill-rule="evenodd" class="s0" d="m9.82 0.12c2.55 0 5.28 0.55 7.23 2.31l-2.42 2.44c-1.25-1.2-3.09-1.79-4.81-1.79c-3.77 0-6.32 2.91-6.32 6.58c0 3.8 2.39 6.84 6.34 6.84c1.38 0 2.99-0.23 4.29-0.96v-4.34h-3.77v-2.96h7.05v9.41c-2.44 1.3-5.02 1.82-7.59 1.82c-5.72 0-9.75-3.9-9.75-9.59c0-5.8 3.95-9.75 9.75-9.75zm16.84 6.08c3.95 0 5.85 2.99 5.85 6.76v0.88h-9.52c0.21 1.79 1.56 2.96 3.35 2.96c1.4 0 2.47-0.6 3.35-1.69l2.24 1.69c-1.35 1.66-3.15 2.5-5.28 2.5c-3.82 0-6.79-2.65-6.79-6.55c0-3.87 2.96-6.55 6.79-6.55zm-3.67 5.3h6.4c-0.03-1.95-1.35-2.96-3.2-2.96c-1.85 0-2.96 1.2-3.2 2.96zm18.77-5.3c3.72 0 4.55 2.89 4.55 4.81v7.98h-3.12v-6.47c0-2.5-0.81-3.51-2.29-3.51c-2 0-2.86 1.46-2.86 3.12v6.86h-3.12v-12.48h2.96v2h0.05c0.75-1.64 2.18-2.31 3.82-2.31zm13.75 0c3.95 0 5.85 2.99 5.85 6.76v0.88h-9.52c0.21 1.79 1.56 2.96 3.35 2.96c1.4 0 2.47-0.6 3.35-1.69l2.24 1.69c-1.35 1.66-3.15 2.5-5.28 2.5c-3.82 0-6.79-2.65-6.79-6.55c0-3.87 2.96-6.55 6.79-6.55zm-3.67 5.3h6.4c-0.03-1.95-1.35-2.96-3.2-2.96c-1.85 0-2.96 1.2-3.2 2.96zm16.19-5.3c1.95 0 3.56 0.68 4.47 1.9l-2.08 1.87c-0.62-0.86-1.4-1.27-2.44-1.27c-1.01 0-1.82 0.52-1.82 1.33c0 1.01 1.4 1.2 2.96 1.56c1.92 0.44 3.77 1.14 3.77 3.72c0 2.63-2.31 4-5.41 4c-1.92 0-3.56-0.49-4.84-1.92l2.08-1.95c1.07 1.17 1.9 1.53 2.96 1.53c1.14 0 2.08-0.57 2.08-1.43c0-1.2-1.51-1.4-3.09-1.77c-1.69-0.39-3.64-0.99-3.64-3.54c0-3.04 2.86-4.03 4.99-4.03zm8.37-5.8c1.14 0 2.03 0.81 2.03 1.87c0 1.12-0.91 1.87-2.03 1.87c-1.12 0-1.98-0.86-1.98-1.87c0-1.01 0.86-1.87 1.98-1.87zm-1.53 6.11h3.12v12.48h-3.12v-12.48zm10.47-0.31c1.95 0 3.56 0.68 4.47 1.9l-2.08 1.87c-0.62-0.86-1.4-1.27-2.44-1.27c-1.01 0-1.82 0.52-1.82 1.33c0 1.01 1.4 1.2 2.96 1.56c1.92 0.44 3.77 1.14 3.77 3.72c0 2.63-2.31 4-5.41 4c-1.92 0-3.56-0.49-4.84-1.92l2.08-1.95c1.07 1.17 1.9 1.53 2.96 1.53c1.14 0 2.08-0.57 2.08-1.43c0-1.2-1.51-1.4-3.09-1.77c-1.69-0.39-3.64-0.99-3.64-3.54c0-3.04 2.86-4.03 4.99-4.03z" />
</svg>