<svg version="1.2" baseProfile="tiny-ps" xmlns="http://www.w3.org/2000/svg" viewBox="0 0 196 276" width="196" height="276">
	<title>g17967</title>
	<style>
		tspan { white-space:pre }
		.s0 { fill: #ffffff;stroke: #000000 } 
		.s1 { opacity: .6;fill: none;stroke: #000000;stroke-width: .5 } 
		.t2 { font-size: 24px;fill: #ff0000;font-family: "Arial" } 
		.s3 { fill: #ff0000 } 
	</style>
	<g id="g17967">
		<g id="g17969">
			<path id="rect17971" class="s0" d="m0.87 8.85c0-4.47 3.62-8.09 8.09-8.09h178.12c4.47 0 8.09 3.62 8.09 8.09v258.14c0 4.47-3.62 8.09-8.09 8.09h-178.12c-4.47 0-8.09-3.62-8.09-8.09v-258.14z" />
			<path id="rect17973" class="s1" d="m28.81 26.66h138.42v222.51h-138.42v-222.51z" />
		</g>
		<text id="tspan17977" style="transform: matrix(1,0,0,1,8.815,25.262)" >
			<tspan x="0" y="0" class="t2">2
</tspan>
		</text>
		<text id="tspan17981" style="transform: matrix(1,0,0,1,173.268,267.333)" >
			<tspan x="0" y="0" class="t2">2
</tspan>
		</text>
		<g id="g17991">
			<path id="path17993" class="s3" d="m15.21 52.24c0 0-1.54-2.7-2.7-4.27c-1.15-1.57-2.23-2.22-3.61-3.73c-1.39-1.53-2.39-2.46-2.39-5.25c0-2.32 2-4.13 4.32-4.13c2.32 0 4.22 1.83 4.36 4.13c0.14-2.3 2.04-4.13 4.36-4.13c2.32 0 4.32 1.81 4.32 4.13c0 2.78-1 3.72-2.39 5.25c-1.38 1.51-2.45 2.17-3.61 3.73c-1.15 1.57-2.7 4.27-2.7 4.27v0z" />
		</g>
		<g id="g17995">
			<path id="path17997" class="s3" d="m179.67 240.78c0 0-1.54-2.7-2.7-4.27c-1.15-1.57-2.23-2.22-3.61-3.73c-1.39-1.53-2.39-2.46-2.39-5.25c0-2.32 2-4.13 4.32-4.13c2.32 0 4.22 1.83 4.36 4.13c0.14-2.3 2.04-4.13 4.36-4.13c2.32 0 4.32 1.81 4.32 4.13c0 2.78-1 3.72-2.39 5.25c-1.38 1.51-2.45 2.17-3.61 3.73c-1.15 1.57-2.7 4.27-2.7 4.27v0z" />
		</g>
		<g id="g2631">
			<path id="path2633" class="s3" d="m98.02 246.82c0 0-2.72-4.76-4.75-7.52c-2.03-2.76-3.93-3.92-6.36-6.58c-2.45-2.69-4.21-4.34-4.21-9.25c0-4.09 3.53-7.28 7.62-7.28c4.1 0 7.44 3.23 7.7 7.28c0.25-4.05 3.6-7.28 7.7-7.28c4.1 0 7.62 3.19 7.62 7.28c0 4.91-1.76 6.56-4.21 9.25c-2.42 2.67-4.32 3.82-6.36 6.58c-2.03 2.76-4.75 7.52-4.75 7.52v0z" />
		</g>
		<path id="path2758" class="s3" d="m98.02 65.47c0 0-2.72-4.77-4.76-7.53c-2.03-2.76-3.93-3.91-6.35-6.58c-2.45-2.69-4.21-4.35-4.21-9.25c0-4.09 3.52-7.29 7.62-7.29c4.1 0 7.44 3.24 7.7 7.29c0.25-4.05 3.6-7.29 7.69-7.29c4.1 0 7.63 3.2 7.63 7.29c0 4.9-1.77 6.56-4.21 9.25c-2.43 2.67-4.33 3.82-6.36 6.58c-2.03 2.76-4.75 7.53-4.75 7.53z" />
	</g>
</svg>