<svg width="245" height="57" viewBox="0 0 245 57" fill="none" xmlns="http://www.w3.org/2000/svg">
<g style="mix-blend-mode:exclusion">
<path fill-rule="evenodd" clip-rule="evenodd" d="M10.788 32.638L8.41995 37.1243L8.4601 52.1743L0.760125 52.1948L0.629423 3.19501L8.3294 3.17447L8.38634 24.5244L18.4094 3.14758L26.1093 3.12704L15.4576 24.9955L26.24 52.1269L18.3301 52.148L10.788 32.638ZM37.0799 40.8279C37.0847 42.6012 37.4497 43.8486 38.1749 44.57C38.9002 45.2914 39.8695 45.6505 41.0828 45.6473C42.2961 45.644 43.2635 45.2798 43.9849 44.5545C44.7063 43.8292 45.0646 42.58 45.0599 40.8066L44.9893 14.3467C44.9846 12.5734 44.6196 11.326 43.8943 10.6046C43.1691 9.88322 42.1998 9.52415 40.9865 9.52738C39.7731 9.53062 38.8058 9.89486 38.0844 10.6201C37.363 11.3454 37.0046 12.5947 37.0094 14.368L37.0799 40.8279ZM29.3107 14.8785C29.3001 10.9119 30.2953 7.86424 32.2963 5.73555C34.2973 3.60686 37.1878 2.53749 40.9678 2.52741C44.7478 2.51732 47.6439 3.57126 49.6563 5.68924C51.6686 7.80723 52.68 10.8495 52.6906 14.8162L52.7586 40.2961C52.7692 44.2628 51.774 47.3104 49.7729 49.4391C47.7719 51.5678 44.8815 52.6371 41.1015 52.6472C37.3215 52.6573 34.4253 51.6034 32.413 49.4854C30.4007 47.3674 29.3892 44.3251 29.3787 40.3585L29.3107 14.8785ZM65.3152 16.5325L65.4099 52.0224L58.4799 52.0409L58.3492 3.04105L68.0092 3.01528L75.9974 32.3241L75.9192 2.99418L82.7791 2.97588L82.9098 51.9757L74.9999 51.9968L65.3152 16.5325ZM88.1505 14.7216C88.1399 10.7549 89.0768 7.70744 90.9611 5.57907C92.8454 3.45069 95.6776 2.38147 99.4576 2.37139C103.238 2.36131 106.075 3.4154 107.971 5.53369C109.867 7.65199 110.82 10.6944 110.83 14.6611L110.835 16.2011L103.555 16.2205L103.549 14.1905C103.544 12.4172 103.203 11.1698 102.524 10.4482C101.846 9.72671 100.9 9.36757 99.6862 9.37081C98.4729 9.37404 97.5289 9.73823 96.8542 10.4634C96.1794 11.1885 95.8444 12.4377 95.8491 14.2111C95.8536 15.8911 96.2309 17.3717 96.981 18.6531C97.7311 19.9344 98.6676 21.1452 99.7907 22.2856C100.914 23.4259 102.118 24.566 103.405 25.7059C104.691 26.8459 105.896 28.091 107.02 29.4413C108.143 30.7917 109.081 32.3292 109.832 34.0538C110.583 35.7785 110.962 37.8075 110.968 40.1408C110.979 44.1075 110.019 47.155 108.088 49.2835C106.157 51.412 103.301 52.4813 99.5213 52.4914C95.7413 52.5015 92.8801 51.4475 90.9378 49.3293C88.9955 47.2111 88.019 44.1687 88.0084 40.2021L88.0004 37.1921L95.2804 37.1727L95.2897 40.6726C95.2945 42.446 95.6594 43.6817 96.3846 44.3797C97.1098 45.0778 98.0791 45.4252 99.2924 45.422C100.506 45.4187 101.473 45.0662 102.195 44.3642C102.916 43.6623 103.274 42.4247 103.27 40.6514C103.265 38.9714 102.888 37.4907 102.138 36.2094C101.388 34.928 100.451 33.7172 99.3281 32.5768C98.2051 31.4365 97.0004 30.2964 95.714 29.1565C94.4276 28.0166 93.2226 26.7714 92.099 25.4211C90.9754 24.0708 90.038 22.5333 89.2867 20.8086C88.5354 19.0839 88.1567 17.0549 88.1505 14.7216ZM113.829 2.89306L137.629 2.82958L137.648 9.82955L129.598 9.85102L129.71 51.8509L122.01 51.8714L121.898 9.87156L113.848 9.89303L113.829 2.89306ZM158.01 51.7754C157.915 51.449 157.821 51.1459 157.727 50.8661C157.633 50.5864 157.55 50.2366 157.479 49.8168C157.408 49.397 157.36 48.8604 157.335 48.2072C157.31 47.5539 157.296 46.7373 157.294 45.7573L157.273 38.0573C157.267 35.7706 156.866 34.1617 156.07 33.2305C155.274 32.2993 153.99 31.836 152.216 31.8408L149.556 31.8479L149.61 51.7978L141.91 51.8183L141.779 2.81851L153.399 2.78751C157.412 2.77681 160.32 3.70238 162.121 5.56425C163.923 7.42613 164.829 10.247 164.839 14.027L164.849 17.877C164.863 22.917 163.191 26.2348 159.836 27.8304C161.798 28.6185 163.143 29.9099 163.871 31.7047C164.599 33.4994 164.967 35.6801 164.973 38.2468L164.994 45.8067C164.997 47.0201 165.046 48.0816 165.142 48.9914C165.238 49.9011 165.474 50.8221 165.85 51.7545L158.01 51.7754ZM149.498 9.79794L149.538 24.8479L152.548 24.8399C153.994 24.836 155.125 24.4597 155.94 23.7108C156.754 22.962 157.159 21.6076 157.154 19.6476L157.141 14.8176C157.136 13.0442 156.818 11.7618 156.186 10.9701C155.554 10.1785 154.561 9.78444 153.208 9.78805L149.498 9.79794ZM178.059 2.72173L178.16 40.5216C178.164 42.2949 178.529 43.5306 179.255 44.2287C179.98 44.9268 180.949 45.2742 182.162 45.2709C183.376 45.2677 184.343 44.9151 185.064 44.2132C185.786 43.5113 186.144 42.2736 186.14 40.5003L186.039 2.70045L193.319 2.68103L193.418 39.9909C193.429 43.9576 192.469 47.0051 190.538 49.1336C188.607 51.2621 185.751 52.3314 181.971 52.3415C178.191 52.3516 175.33 51.2975 173.388 49.1794C171.445 47.0612 170.469 44.0188 170.458 40.0521L170.359 2.74227L178.059 2.72173ZM220.399 2.6088L244.199 2.54531L244.217 9.54529L236.167 9.56676L236.279 51.5666L228.579 51.5871L228.467 9.5873L220.417 9.60877L220.399 2.6088Z" fill="#1A1A1A"/>
</g>
<path fill-rule="evenodd" clip-rule="evenodd" d="M197.044 28.1357L216.977 3.08239L217.111 53.0822L197.044 28.1357Z" fill="#1A1A1A"/>
</svg>
