<svg width="39" height="16" viewBox="0 0 39 16" fill="none" xmlns="http://www.w3.org/2000/svg">
<path d="M8.89714 9.40216L3.50653 9.41654L3.51557 12.8052L9.88274 12.7882L9.88977 15.4249L0.0948842 15.451L0.0569572 1.23235L9.87138 1.20617L9.87843 3.85265L3.49174 3.86968L3.49974 6.86772L8.89034 6.85334L8.89714 9.40216ZM23.9612 15.3874L20.553 15.3965L15.4904 6.5623L15.514 15.4099L12.0862 15.4191L12.0483 1.20036L15.476 1.19122L20.5289 10.0254L20.5053 1.17781L23.9233 1.16869L23.9612 15.3874ZM38.9651 13.5895C38.4393 14.1769 37.6691 14.651 36.6544 15.0117C35.6397 15.3725 34.5269 15.5545 33.316 15.5577C31.454 15.5627 29.9649 14.997 28.8486 13.8607C27.7322 12.7243 27.1323 11.1406 27.0488 9.1096L27.0357 7.87916C27.032 6.47943 27.2761 5.25807 27.7681 4.21509C28.2601 3.16559 28.9644 2.35967 29.8808 1.79733C30.8038 1.22846 31.8707 0.942412 33.0817 0.939182C34.8525 0.934458 36.2273 1.33769 37.206 2.14889C38.1912 2.95355 38.7674 4.1597 38.9344 5.76734L35.6337 5.77614C35.5144 4.98219 35.2589 4.41646 34.8674 4.07896C34.4759 3.74146 33.922 3.57367 33.2059 3.57558C32.3465 3.57787 31.6834 3.94422 31.2166 4.67464C30.7498 5.40505 30.515 6.44735 30.5121 7.80153L30.5144 8.6609C30.5182 10.0802 30.7619 11.1472 31.2456 11.8621C31.7357 12.5704 32.5017 12.9232 33.5433 12.9204C34.4353 12.918 35.0988 12.7177 35.5339 12.3194L35.528 10.1124L33.1452 10.1187L33.139 7.76522L38.9495 7.74973L38.9651 13.5895Z" fill="white"/>
<path d="M8.89714 9.40216L8.89981 10.4022L9.8998 10.3995L9.89714 9.39949L8.89714 9.40216ZM3.50653 9.41654L3.50387 8.41654L2.50387 8.41921L2.50654 9.4192L3.50653 9.41654ZM3.51557 12.8052L2.51558 12.8079L2.51824 13.8079L3.51824 13.8052L3.51557 12.8052ZM9.88274 12.7882L10.8827 12.7855L10.8801 11.7855L9.88007 11.7882L9.88274 12.7882ZM9.88977 15.4249L9.89244 16.4249L10.8924 16.4223L10.8898 15.4223L9.88977 15.4249ZM0.0948842 15.451L-0.905112 15.4537L-0.902445 16.4537L0.0975515 16.451L0.0948842 15.451ZM0.0569572 1.23235L0.0542898 0.232354L-0.945707 0.235022L-0.943039 1.23502L0.0569572 1.23235ZM9.87138 1.20617L10.8714 1.2035L10.8687 0.203508L9.86871 0.206175L9.87138 1.20617ZM9.87843 3.85265L9.8811 4.85264L10.8811 4.84998L10.8784 3.84998L9.87843 3.85265ZM3.49174 3.86968L3.48907 2.86969L2.48907 2.87235L2.49174 3.87235L3.49174 3.86968ZM3.49974 6.86772L2.49974 6.87039L2.50241 7.87038L3.5024 7.86771L3.49974 6.86772ZM8.89034 6.85334L9.89034 6.85067L9.88767 5.85068L8.88767 5.85334L8.89034 6.85334ZM8.89447 8.40216L3.50387 8.41654L3.5092 10.4165L8.89981 10.4022L8.89447 8.40216ZM2.50654 9.4192L2.51558 12.8079L4.51557 12.8025L4.50653 9.41387L2.50654 9.4192ZM3.51824 13.8052L9.88541 13.7882L9.88007 11.7882L3.51291 11.8052L3.51824 13.8052ZM8.88274 12.7909L8.88977 15.4276L10.8898 15.4223L10.8827 12.7855L8.88274 12.7909ZM9.8871 14.4249L0.0922168 14.4511L0.0975515 16.451L9.89244 16.4249L9.8871 14.4249ZM1.09488 15.4484L1.05695 1.22968L-0.943039 1.23502L-0.905112 15.4537L1.09488 15.4484ZM0.0596246 2.23235L9.87404 2.20617L9.86871 0.206175L0.0542898 0.232354L0.0596246 2.23235ZM8.87138 1.20884L8.87844 3.85531L10.8784 3.84998L10.8714 1.2035L8.87138 1.20884ZM9.87577 2.85265L3.48907 2.86969L3.49441 4.86968L9.8811 4.85264L9.87577 2.85265ZM2.49174 3.87235L2.49974 6.87039L4.49973 6.86505L4.49173 3.86702L2.49174 3.87235ZM3.5024 7.86771L8.89301 7.85334L8.88767 5.85334L3.49707 5.86772L3.5024 7.86771ZM7.89034 6.85601L7.89714 9.40483L9.89714 9.39949L9.89034 6.85067L7.89034 6.85601ZM23.9612 15.3874L23.9639 16.3874L24.9639 16.3847L24.9612 15.3847L23.9612 15.3874ZM20.553 15.3965L19.6854 15.8937L19.9744 16.398L20.5557 16.3965L20.553 15.3965ZM15.4904 6.5623L16.358 6.06508L14.4803 2.78855L14.4904 6.56496L15.4904 6.5623ZM15.514 15.4099L15.5166 16.4099L16.5166 16.4072L16.514 15.4073L15.514 15.4099ZM12.0862 15.4191L11.0863 15.4217L11.0889 16.4217L12.0889 16.4191L12.0862 15.4191ZM12.0483 1.20036L12.0457 0.200368L11.0457 0.203036L11.0483 1.20303L12.0483 1.20036ZM15.476 1.19122L16.3441 0.69473L16.0552 0.189673L15.4734 0.191225L15.476 1.19122ZM20.5289 10.0254L19.6609 10.5219L21.539 13.8056L21.5289 10.0228L20.5289 10.0254ZM20.5053 1.17781L20.5027 0.17781L19.5027 0.180478L19.5053 1.18047L20.5053 1.17781ZM23.9233 1.16869L24.9233 1.16602L24.9206 0.166026L23.9206 0.168693L23.9233 1.16869ZM23.9585 14.3874L20.5503 14.3965L20.5557 16.3965L23.9639 16.3874L23.9585 14.3874ZM21.4206 14.8993L16.358 6.06508L14.6227 7.05951L19.6854 15.8937L21.4206 14.8993ZM14.4904 6.56496L14.514 15.4126L16.514 15.4073L16.4904 6.55963L14.4904 6.56496ZM15.5113 14.4099L12.0836 14.4191L12.0889 16.4191L15.5166 16.4099L15.5113 14.4099ZM13.0862 15.4164L13.0483 1.1977L11.0483 1.20303L11.0863 15.4217L13.0862 15.4164ZM12.051 2.20036L15.4787 2.19122L15.4734 0.191225L12.0457 0.200368L12.051 2.20036ZM14.608 1.68771L19.6609 10.5219L21.397 9.52894L16.3441 0.69473L14.608 1.68771ZM21.5289 10.0228L21.5053 1.17514L19.5053 1.18047L19.5289 10.0281L21.5289 10.0228ZM20.508 2.1778L23.9259 2.16869L23.9206 0.168693L20.5027 0.17781L20.508 2.1778ZM22.9233 1.17136L22.9612 15.3901L24.9612 15.3847L24.9233 1.16602L22.9233 1.17136ZM38.9651 13.5895L39.7101 14.2565L39.9661 13.9706L39.9651 13.5869L38.9651 13.5895ZM27.0488 9.1096L26.0488 9.1202L26.049 9.13546L26.0496 9.1507L27.0488 9.1096ZM27.0357 7.87916L26.0357 7.88183L26.0358 7.88977L27.0357 7.87916ZM27.7681 4.21509L28.6726 4.64173L28.6736 4.63955L27.7681 4.21509ZM29.8808 1.79733L30.4038 2.64967L30.4055 2.64862L29.8808 1.79733ZM37.206 2.14889L36.5679 2.91883L36.5734 2.92339L37.206 2.14889ZM38.9344 5.76734L38.9371 6.76733L40.0434 6.76438L39.9291 5.66398L38.9344 5.76734ZM35.6337 5.77614L34.6448 5.92474L34.773 6.77844L35.6363 6.77614L35.6337 5.77614ZM31.2166 4.67464L32.0593 5.21315L31.2166 4.67464ZM30.5121 7.80153L29.5121 7.79939L29.5121 7.8042L30.5121 7.80153ZM31.2456 11.8621L30.4173 12.4225L30.4233 12.4311L31.2456 11.8621ZM35.5339 12.3194L36.2091 13.057L36.5351 12.7587L36.5339 12.3167L35.5339 12.3194ZM35.528 10.1124L36.528 10.1097L36.5254 9.10971L35.5254 9.11238L35.528 10.1124ZM33.1452 10.1187L32.1452 10.1214L32.1479 11.1214L33.1479 11.1187L33.1452 10.1187ZM33.139 7.76522L33.1363 6.76523L32.1363 6.7679L32.139 7.76789L33.139 7.76522ZM38.9495 7.74973L39.9495 7.74706L39.9468 6.74706L38.9468 6.74973L38.9495 7.74973ZM38.22 12.9226C37.8391 13.3481 37.2315 13.7452 36.3194 14.0695L36.9894 15.9539C38.1066 15.5567 39.0395 15.0057 39.7101 14.2565L38.22 12.9226ZM36.3194 14.0695C35.4238 14.3879 34.425 14.5548 33.3133 14.5578L33.3187 16.5577C34.6289 16.5543 35.8556 16.3571 36.9894 15.9539L36.3194 14.0695ZM33.3133 14.5578C31.6713 14.5621 30.4576 14.0717 29.5619 13.1599L28.1352 14.5615C29.4721 15.9224 31.2367 16.5633 33.3187 16.5577L33.3133 14.5578ZM29.5619 13.1599C28.6633 12.2451 28.1242 10.9225 28.0479 9.0685L26.0496 9.1507C26.1404 11.3588 26.8012 13.2036 28.1352 14.5615L29.5619 13.1599ZM28.0487 9.099L28.0357 7.86856L26.0358 7.88977L26.0488 9.1202L28.0487 9.099ZM28.0357 7.87649C28.0323 6.594 28.2559 5.52487 28.6726 4.64173L26.8637 3.78844C26.2963 4.99127 26.0317 6.36485 26.0357 7.88183L28.0357 7.87649ZM28.6736 4.63955C29.0894 3.75255 29.667 3.10179 30.4038 2.64967L29.3578 0.944994C28.2617 1.61756 27.4309 2.57863 26.8627 3.79062L28.6736 4.63955ZM30.4055 2.64862C31.1537 2.18751 32.0356 1.94198 33.0844 1.93918L33.079 -0.0608148C31.7059 -0.057152 30.4539 0.269417 29.3561 0.946041L30.4055 2.64862ZM33.0844 1.93918C34.7123 1.93484 35.8288 2.30621 36.5679 2.91881L37.8441 1.37896C36.6258 0.369178 34.9927 -0.0659193 33.079 -0.0608148L33.0844 1.93918ZM36.5734 2.92339C37.3025 3.51883 37.7923 4.45119 37.9398 5.87069L39.9291 5.66398C39.7425 3.86821 39.08 2.38828 37.8386 1.37438L36.5734 2.92339ZM38.9318 4.76734L35.631 4.77615L35.6363 6.77614L38.9371 6.76733L38.9318 4.76734ZM36.6226 5.62754C36.4864 4.72179 36.17 3.88156 35.5203 3.32153L34.2145 4.83639C34.3479 4.95136 34.5423 5.24258 34.6448 5.92474L36.6226 5.62754ZM35.5203 3.32153C34.8869 2.77555 34.0674 2.57328 33.2032 2.57558L33.2086 4.57557C33.7767 4.57406 34.0648 4.70737 34.2145 4.83639L35.5203 3.32153ZM33.2032 2.57558C32 2.57879 31.0221 3.12203 30.374 4.13613L32.0593 5.21315C32.3448 4.76642 32.693 4.57695 33.2086 4.57557L33.2032 2.57558ZM30.374 4.13613C29.7624 5.09315 29.5152 6.35331 29.5121 7.79939L31.5121 7.80367C31.5148 6.54139 31.7373 5.71696 32.0593 5.21315L30.374 4.13613ZM29.5121 7.8042L29.5144 8.66357L31.5144 8.65823L31.5121 7.79886L29.5121 7.8042ZM29.5144 8.66357C29.5184 10.1658 29.7714 11.4677 30.4173 12.4225L32.0738 11.3017C31.7524 10.8267 31.5179 9.99456 31.5144 8.65823L29.5144 8.66357ZM30.4233 12.4311C31.1414 13.4688 32.2537 13.9239 33.546 13.9204L33.5407 11.9204C32.7497 11.9225 32.3301 11.672 32.0679 11.293L30.4233 12.4311ZM33.546 13.9204C34.5631 13.9177 35.5158 13.6917 36.2091 13.057L34.8587 11.5818C34.6818 11.7437 34.3074 11.9184 33.5407 11.9204L33.546 13.9204ZM36.5339 12.3167L36.528 10.1097L34.528 10.115L34.5339 12.3221L36.5339 12.3167ZM35.5254 9.11238L33.1426 9.11874L33.1479 11.1187L35.5307 11.1124L35.5254 9.11238ZM34.1452 10.1161L34.1389 7.76256L32.139 7.76789L32.1452 10.1214L34.1452 10.1161ZM33.1416 8.76522L38.9521 8.74972L38.9468 6.74973L33.1363 6.76523L33.1416 8.76522ZM37.9495 7.75239L37.9651 13.5922L39.9651 13.5869L39.9495 7.74706L37.9495 7.75239Z" fill="black"/>
</svg>
