<svg width="245" height="51" viewBox="0 0 245 51" fill="none" xmlns="http://www.w3.org/2000/svg">
<g style="mix-blend-mode:exclusion">
<path fill-rule="evenodd" clip-rule="evenodd" d="M10.788 30.638L8.41995 35.1243L8.4601 50.1743L0.760125 50.1948L0.629423 1.19501L8.3294 1.17447L8.38634 22.5244L18.4094 1.14758L26.1093 1.12704L15.4576 22.9955L26.24 50.1269L18.3301 50.148L10.788 30.638ZM37.0799 38.8279C37.0847 40.6012 37.4497 41.8486 38.1749 42.57C38.9002 43.2914 39.8695 43.6505 41.0828 43.6473C42.2961 43.644 43.2635 43.2798 43.9849 42.5545C44.7063 41.8292 45.0646 40.58 45.0599 38.8066L44.9893 12.3467C44.9846 10.5734 44.6196 9.32603 43.8943 8.60463C43.1691 7.88322 42.1998 7.52415 40.9865 7.52738C39.7731 7.53062 38.8058 7.89486 38.0844 8.62013C37.363 9.34539 37.0046 10.5947 37.0094 12.368L37.0799 38.8279ZM29.3107 12.8785C29.3001 8.91187 30.2953 5.86424 32.2963 3.73555C34.2973 1.60686 37.1878 0.53749 40.9678 0.527407C44.7478 0.517325 47.6439 1.57126 49.6563 3.68924C51.6686 5.80723 52.68 8.84951 52.6906 12.8162L52.7586 38.2961C52.7692 42.2628 51.774 45.3104 49.7729 47.4391C47.7719 49.5678 44.8815 50.6371 41.1015 50.6472C37.3215 50.6573 34.4253 49.6034 32.413 47.4854C30.4007 45.3674 29.3892 42.3251 29.3787 38.3585L29.3107 12.8785ZM65.3152 14.5325L65.4099 50.0224L58.4799 50.0409L58.3492 1.04105L68.0092 1.01528L75.9974 30.3241L75.9192 0.99418L82.7791 0.975882L82.9098 49.9757L74.9999 49.9968L65.3152 14.5325ZM88.1505 12.7216C88.1399 8.75492 89.0768 5.70744 90.9611 3.57907C92.8454 1.45069 95.6776 0.381475 99.4576 0.371392C103.238 0.361309 106.075 1.4154 107.971 3.53369C109.867 5.65199 110.82 8.69443 110.83 12.6611L110.835 14.2011L103.555 14.2205L103.549 12.1905C103.544 10.4172 103.203 9.16977 102.524 8.44824C101.846 7.72671 100.9 7.36757 99.6862 7.37081C98.4729 7.37404 97.5289 7.73823 96.8542 8.46336C96.1794 9.1885 95.8444 10.4377 95.8491 12.2111C95.8536 13.8911 96.2309 15.3717 96.981 16.6531C97.7311 17.9344 98.6676 19.1452 99.7907 20.2856C100.914 21.4259 102.118 22.566 103.405 23.7059C104.691 24.8459 105.896 26.091 107.02 27.4413C108.143 28.7917 109.081 30.3292 109.832 32.0538C110.583 33.7785 110.962 35.8075 110.968 38.1408C110.979 42.1075 110.019 45.155 108.088 47.2835C106.157 49.412 103.301 50.4813 99.5213 50.4914C95.7413 50.5015 92.8801 49.4475 90.9378 47.3293C88.9955 45.2111 88.019 42.1687 88.0084 38.2021L88.0004 35.1921L95.2804 35.1727L95.2897 38.6726C95.2945 40.446 95.6594 41.6817 96.3846 42.3797C97.1098 43.0778 98.0791 43.4252 99.2924 43.422C100.506 43.4187 101.473 43.0662 102.195 42.3642C102.916 41.6623 103.274 40.4247 103.27 38.6514C103.265 36.9714 102.888 35.4907 102.138 34.2094C101.388 32.928 100.451 31.7172 99.3281 30.5768C98.2051 29.4365 97.0004 28.2964 95.714 27.1565C94.4276 26.0166 93.2226 24.7714 92.099 23.4211C90.9754 22.0708 90.038 20.5333 89.2867 18.8086C88.5354 17.0839 88.1567 15.0549 88.1505 12.7216ZM113.829 0.893059L137.629 0.829575L137.648 7.82955L129.598 7.85102L129.71 49.8509L122.01 49.8714L121.898 7.87156L113.848 7.89303L113.829 0.893059ZM158.01 49.7754C157.915 49.449 157.821 49.1459 157.727 48.8661C157.633 48.5864 157.55 48.2366 157.479 47.8168C157.408 47.397 157.36 46.8604 157.335 46.2072C157.31 45.5539 157.296 44.7373 157.294 43.7573L157.273 36.0573C157.267 33.7706 156.866 32.1617 156.07 31.2305C155.274 30.2993 153.99 29.836 152.216 29.8408L149.556 29.8479L149.61 49.7978L141.91 49.8183L141.779 0.818506L153.399 0.787511C157.412 0.776806 160.32 1.70238 162.121 3.56425C163.923 5.42613 164.829 8.24703 164.839 12.027L164.849 15.877C164.863 20.917 163.191 24.2348 159.836 25.8304C161.798 26.6185 163.143 27.9099 163.871 29.7047C164.599 31.4994 164.967 33.6801 164.973 36.2468L164.994 43.8067C164.997 45.0201 165.046 46.0816 165.142 46.9914C165.238 47.9011 165.474 48.8221 165.85 49.7545L158.01 49.7754ZM149.498 7.79794L149.538 22.8479L152.548 22.8399C153.994 22.836 155.125 22.4597 155.94 21.7108C156.754 20.962 157.159 19.6076 157.154 17.6476L157.141 12.8176C157.136 11.0442 156.818 9.76176 156.186 8.97011C155.554 8.17845 154.561 7.78444 153.208 7.78805L149.498 7.79794ZM178.059 0.721733L178.16 38.5216C178.164 40.2949 178.529 41.5306 179.255 42.2287C179.98 42.9268 180.949 43.2742 182.162 43.2709C183.376 43.2677 184.343 42.9151 185.064 42.2132C185.786 41.5113 186.144 40.2736 186.14 38.5003L186.039 0.700447L193.319 0.681029L193.418 37.9909C193.429 41.9576 192.469 45.0051 190.538 47.1336C188.607 49.2621 185.751 50.3314 181.971 50.3415C178.191 50.3516 175.33 49.2975 173.388 47.1794C171.445 45.0612 170.469 42.0188 170.458 38.0521L170.359 0.742272L178.059 0.721733ZM220.399 0.608796L244.199 0.545312L244.217 7.54529L236.167 7.56676L236.279 49.5666L228.579 49.5871L228.467 7.5873L220.417 7.60877L220.399 0.608796Z" fill="#1A1A1A"/>
</g>
</svg>
