<svg width="28" height="28" viewBox="0 0 28 28" fill="none" xmlns="http://www.w3.org/2000/svg">
<rect width="28" height="28" fill="#E5E5E5"/>
<rect width="1440" height="4294" transform="translate(-159 -41)" fill="white"/>
<mask id="path-1-outside-1_0_1" maskUnits="userSpaceOnUse" x="0" y="0" width="28" height="28" fill="black">
<rect fill="white" width="28" height="28"/>
<path d="M27 7.73096C27 4.0195 23.9805 1 20.2692 1C17.477 1 14.9939 2.74636 14.0001 5.28124C13.0061 2.74636 10.5229 1 7.7308 1C4.0195 1 1 4.0195 1 7.73096C1 10.5197 2.68274 12.9536 5.20052 13.9656C2.68274 14.9776 1 17.4115 1 20.2002C1 23.9117 4.0195 26.9312 7.7308 26.9312C10.5229 26.9312 13.0061 25.1848 14.0001 22.6499C14.9939 25.1848 17.477 26.9312 20.2692 26.9312C23.9805 26.9312 27 23.9117 27 20.2002C27 17.4115 25.3173 14.9776 22.7995 13.9656C25.3173 12.9536 27 10.5197 27 7.73096ZM21.6496 13.65C21.5029 13.6839 21.3989 13.8149 21.3989 13.9656C21.3989 14.1162 21.5029 14.2473 21.6496 14.2812C24.4181 14.9247 26.3517 17.3586 26.3517 20.2002C26.3517 23.5543 23.6231 26.2829 20.2692 26.2829C17.4067 26.2829 14.9035 24.2519 14.3173 21.454C14.2859 21.304 14.1534 21.1964 14.0001 21.1964C13.8467 21.1964 13.7142 21.304 13.6829 21.454C13.0965 24.2519 10.5933 26.2829 7.7308 26.2829C4.37687 26.2829 1.64828 23.5543 1.64828 20.2002C1.64828 17.3586 3.58188 14.9247 6.35036 14.2812C6.49707 14.2473 6.60106 14.1162 6.60106 13.9656C6.60106 13.8149 6.49707 13.6839 6.35036 13.65C3.58188 13.0065 1.64828 10.5726 1.64828 7.73096C1.64828 4.37687 4.37687 1.64828 7.7308 1.64828C10.5933 1.64828 13.0965 3.67921 13.6829 6.47713C13.7142 6.62717 13.8467 6.7348 14.0001 6.7348C14.1534 6.7348 14.2859 6.62717 14.3173 6.47713C14.9035 3.67921 17.4067 1.64828 20.2692 1.64828C23.6231 1.64828 26.3517 4.37687 26.3517 7.73096C26.3517 10.5726 24.4181 13.0065 21.6496 13.65Z"/>
</mask>
<path d="M27 7.73096C27 4.0195 23.9805 1 20.2692 1C17.477 1 14.9939 2.74636 14.0001 5.28124C13.0061 2.74636 10.5229 1 7.7308 1C4.0195 1 1 4.0195 1 7.73096C1 10.5197 2.68274 12.9536 5.20052 13.9656C2.68274 14.9776 1 17.4115 1 20.2002C1 23.9117 4.0195 26.9312 7.7308 26.9312C10.5229 26.9312 13.0061 25.1848 14.0001 22.6499C14.9939 25.1848 17.477 26.9312 20.2692 26.9312C23.9805 26.9312 27 23.9117 27 20.2002C27 17.4115 25.3173 14.9776 22.7995 13.9656C25.3173 12.9536 27 10.5197 27 7.73096ZM21.6496 13.65C21.5029 13.6839 21.3989 13.8149 21.3989 13.9656C21.3989 14.1162 21.5029 14.2473 21.6496 14.2812C24.4181 14.9247 26.3517 17.3586 26.3517 20.2002C26.3517 23.5543 23.6231 26.2829 20.2692 26.2829C17.4067 26.2829 14.9035 24.2519 14.3173 21.454C14.2859 21.304 14.1534 21.1964 14.0001 21.1964C13.8467 21.1964 13.7142 21.304 13.6829 21.454C13.0965 24.2519 10.5933 26.2829 7.7308 26.2829C4.37687 26.2829 1.64828 23.5543 1.64828 20.2002C1.64828 17.3586 3.58188 14.9247 6.35036 14.2812C6.49707 14.2473 6.60106 14.1162 6.60106 13.9656C6.60106 13.8149 6.49707 13.6839 6.35036 13.65C3.58188 13.0065 1.64828 10.5726 1.64828 7.73096C1.64828 4.37687 4.37687 1.64828 7.7308 1.64828C10.5933 1.64828 13.0965 3.67921 13.6829 6.47713C13.7142 6.62717 13.8467 6.7348 14.0001 6.7348C14.1534 6.7348 14.2859 6.62717 14.3173 6.47713C14.9035 3.67921 17.4067 1.64828 20.2692 1.64828C23.6231 1.64828 26.3517 4.37687 26.3517 7.73096C26.3517 10.5726 24.4181 13.0065 21.6496 13.65Z" fill="#3DB370"/>
<path d="M27 7.73096C27 4.0195 23.9805 1 20.2692 1C17.477 1 14.9939 2.74636 14.0001 5.28124C13.0061 2.74636 10.5229 1 7.7308 1C4.0195 1 1 4.0195 1 7.73096C1 10.5197 2.68274 12.9536 5.20052 13.9656C2.68274 14.9776 1 17.4115 1 20.2002C1 23.9117 4.0195 26.9312 7.7308 26.9312C10.5229 26.9312 13.0061 25.1848 14.0001 22.6499C14.9939 25.1848 17.477 26.9312 20.2692 26.9312C23.9805 26.9312 27 23.9117 27 20.2002C27 17.4115 25.3173 14.9776 22.7995 13.9656C25.3173 12.9536 27 10.5197 27 7.73096ZM21.6496 13.65C21.5029 13.6839 21.3989 13.8149 21.3989 13.9656C21.3989 14.1162 21.5029 14.2473 21.6496 14.2812C24.4181 14.9247 26.3517 17.3586 26.3517 20.2002C26.3517 23.5543 23.6231 26.2829 20.2692 26.2829C17.4067 26.2829 14.9035 24.2519 14.3173 21.454C14.2859 21.304 14.1534 21.1964 14.0001 21.1964C13.8467 21.1964 13.7142 21.304 13.6829 21.454C13.0965 24.2519 10.5933 26.2829 7.7308 26.2829C4.37687 26.2829 1.64828 23.5543 1.64828 20.2002C1.64828 17.3586 3.58188 14.9247 6.35036 14.2812C6.49707 14.2473 6.60106 14.1162 6.60106 13.9656C6.60106 13.8149 6.49707 13.6839 6.35036 13.65C3.58188 13.0065 1.64828 10.5726 1.64828 7.73096C1.64828 4.37687 4.37687 1.64828 7.7308 1.64828C10.5933 1.64828 13.0965 3.67921 13.6829 6.47713C13.7142 6.62717 13.8467 6.7348 14.0001 6.7348C14.1534 6.7348 14.2859 6.62717 14.3173 6.47713C14.9035 3.67921 17.4067 1.64828 20.2692 1.64828C23.6231 1.64828 26.3517 4.37687 26.3517 7.73096C26.3517 10.5726 24.4181 13.0065 21.6496 13.65Z" stroke="#3DB370" mask="url(#path-1-outside-1_0_1)"/>
</svg>
